<svg width="128" height="624" fill="none" xmlns="http://www.w3.org/2000/svg"><path d="M-470.774 624v-4.13l-119.659-110.648L-944 622.024v-38.388l.922-.643 339.272-236.649L-944 454.876v-38.388l.922-.643 339.272-236.649L-944 287.724v-38.388l.922-.642 353.377-246.49 121.095 111.864L-347.54 2.027l.07.066L-345.226 0v4.165l119.659 110.647L128 2.014v38.388l-.922.643-339.272 236.649L128 169.162v38.388l-.922.643-339.272 236.649L128 336.31v38.388l-.922.643-353.377 246.49-121.095-111.864-121.076 112.044-.079-.073-2.228 2.059.003.003zm123.377-119.905l121.475 112.215 349.606-243.857v-30.236l-361.738 115.404 361.738-252.319v-30.233l-361.738 115.404 361.741-252.32V7.919l-350.338 111.768-.926-.855-119.96-110.926-121.066 112.038-1.467-1.356-120.008-110.86-349.606 243.858v30.236l361.738-115.405-361.738 252.32v30.236l361.738-115.404-361.738 252.316v30.236l350.338-111.768 120.81 111.711.006-.006.073.07 121.06-112.032z" fill="#FF6001"/></svg>