<svg width="19" height="20" fill="none" xmlns="http://www.w3.org/2000/svg"><g clip-path="url(#clip0_21_4004)" fill="#000"><path d="M12.667 2.397a.791.791 0 01.786.7l.005.092v.792h.792a2.375 2.375 0 012.371 2.235l.004.14v9.5a2.375 2.375 0 01-2.236 2.37l-.139.005h-9.5a2.376 2.376 0 01-2.371-2.236l-.004-.14v-9.5a2.375 2.375 0 012.236-2.37l.139-.004h.792v-.792a.792.792 0 011.577-.093l.006.093v.792h4.75v-.792a.792.792 0 01.792-.792zm2.375 5.542H3.958v7.62c0 .558.306 1.018.7 1.081l.092.007h9.5c.406 0 .741-.42.786-.961l.006-.127v-7.62z"/><path d="M9.5 10.314a.792.792 0 01.787.699l.005.093v2.375a.792.792 0 01-1.578.092l-.005-.092v-1.584a.792.792 0 01-.093-1.578l.093-.005H9.5z"/></g><defs><clipPath id="clip0_21_4004"><path fill="#fff" transform="translate(0 .814)" d="M0 0h19v19H0z"/></clipPath></defs></svg>