<svg width="216" height="215" viewBox="0 0 216 215" fill="none" xmlns="http://www.w3.org/2000/svg">
<g clip-path="url(#clip0_153_23018)">
<path d="M57.2079 71.666H158.786C161.37 71.6657 163.923 72.224 166.27 73.3027C168.617 74.3814 170.703 75.9549 172.386 77.9154C174.068 79.8759 175.306 82.1769 176.016 84.6608C176.726 87.1448 176.89 89.7527 176.497 92.306L165.254 165.334C164.278 171.681 161.062 177.468 156.188 181.649C151.315 185.829 145.105 188.126 138.684 188.124H77.3014C70.8819 188.124 64.6745 185.826 59.8025 181.646C54.9305 177.465 51.7157 171.679 50.74 165.334L39.4972 92.306C39.1046 89.7527 39.2687 87.1448 39.9784 84.6608C40.688 82.1769 41.9264 79.8759 43.6086 77.9154C45.2909 75.9549 47.3772 74.3814 49.7245 73.3027C52.0718 72.224 54.6246 71.6657 57.2079 71.666Z" stroke="black" stroke-width="3.5" stroke-linecap="round" stroke-linejoin="round"/>
<path d="M81.125 98.5417V53.75C81.125 46.6223 83.9565 39.7865 88.9965 34.7465C94.0365 29.7065 100.872 26.875 108 26.875C115.128 26.875 121.963 29.7065 127.003 34.7465C132.044 39.7865 134.875 46.6223 134.875 53.75V98.5417" stroke="black" stroke-width="3.5" stroke-linecap="round" stroke-linejoin="round"/>
</g>
<defs>
<clipPath id="clip0_153_23018">
<rect width="215" height="215" fill="white" transform="translate(0.5)"/>
</clipPath>
</defs>
</svg>
