<svg width="232" height="121" fill="none" xmlns="http://www.w3.org/2000/svg"><path d="M143.26 57.732l9.8 8.446-12.672 8.636L121.534 58.7l20.196-13.634L123.313.94h4.436l31.915 45.6-16.404 11.193zm-55.366 0l-9.8 8.446 12.673 8.636L109.62 58.7 89.431 45.066 107.842.94h-4.436l-31.915 45.6 16.403 11.193zM33.195 87.118v6.514H20.32l-.079 26.429h-7.316v-26.43H0v-6.513h33.195zm102.824 10.936v2.392h18.065v6.333h-18.065v13.279h-6.946V97.931c0-5.94 4.73-10.76 10.572-10.77h14.44v6.331h-13.594c-2.469 0-4.472 2.036-4.472 4.547v.015zm35.834 0v2.392h18.066v6.333h-18.066v13.279h-6.91V97.931c0-5.926 4.708-10.74 10.536-10.77h14.44v6.331h-13.601c-2.469.004-4.468 2.044-4.465 4.555v.007zM67.54 106.29l.406-.152c.05 0 5.02-1.887 5.02-9.282 0-6.144-4.266-9.954-11.07-9.954H43.132v33.158h7.032v-12.404h10.899v.05l5.054 12.354h7.82l-6.398-13.77zm-5.134-5.017H50.32v-7.648h12.087c1.985-.067 3.648 1.517 3.713 3.536a3.72 3.72 0 01-.002.287c.036 2.076-1.59 3.788-3.632 3.824h-.115.035v.001zm44.103-14.366H95.353l-12.726 33.151h6.953l2.24-5.544h18.214l2.239 5.544h6.961l-12.727-33.151h.002zm-12.144 21.332l5.211-14.573h2.709v.05l5.198 14.517-13.118.007v-.001zm124.053-21.332H207.27l-12.733 33.151h6.961l2.246-5.544h18.208l2.239 5.544h6.967l-12.741-33.151h.001zm-12.144 21.332l5.211-14.573h2.716v.05l5.19 14.517-13.118.007.001-.001z" fill="#fff"/></svg>