<svg width="20" height="21" fill="none" xmlns="http://www.w3.org/2000/svg"><path d="M10 2.621h4.096c.964 0 1.446.241 1.808.362.482.24.843.361 1.204.723.362.361.603.722.723 1.204.12.362.241.844.362 1.808v8.192c0 .964-.241 1.446-.362 1.808-.24.482-.361.843-.723 1.204-.361.362-.723.603-1.204.723-.362.12-.844.241-1.808.362H5.904c-.964 0-1.446-.241-1.808-.362-.482-.24-.843-.361-1.204-.723-.362-.361-.603-.723-.723-1.204-.12-.362-.241-.844-.362-1.808V6.718c0-.964.241-1.446.362-1.808.24-.482.361-.843.723-1.204.361-.362.722-.603 1.204-.723.362-.12.844-.241 1.808-.362H10zm0-1.807H5.904c-1.085 0-1.808.24-2.41.482A5.26 5.26 0 001.687 2.5C1.084 3.103.843 3.585.482 4.308.24 4.91.12 5.633 0 6.718v8.192c0 1.085.241 1.808.482 2.41a5.26 5.26 0 001.205 1.807c.602.603 1.084.844 1.807 1.205.602.241 1.325.361 2.41.482h8.192c1.085 0 1.808-.241 2.41-.482a5.261 5.261 0 001.807-1.205c.603-.602.844-1.084 1.205-1.807.241-.602.361-1.325.482-2.41V6.718c0-1.085-.241-1.808-.482-2.41A5.261 5.261 0 0018.313 2.5c-.602-.603-1.084-.844-1.807-1.205-.602-.241-1.325-.362-2.41-.482H10z" fill="#000"/><path d="M10 5.633a5.142 5.142 0 00-5.18 5.181c0 2.892 2.288 5.18 5.18 5.18s5.18-2.288 5.18-5.18-2.288-5.18-5.18-5.18zm0 8.554a3.368 3.368 0 01-3.373-3.373A3.368 3.368 0 0110 7.44a3.368 3.368 0 013.373 3.374c0 1.807-1.566 3.373-3.373 3.373zm5.301-7.469a1.205 1.205 0 100-2.41 1.205 1.205 0 000 2.41z" fill="#000"/></svg>