<svg width="62" height="624" fill="none" xmlns="http://www.w3.org/2000/svg"><path d="M473.226 624v-4.13L353.567 509.222 0 622.024v-38.388l.922-.643 339.272-236.649L0 454.876v-38.388l.922-.643 339.272-236.649L0 287.724v-38.387l.922-.643L354.3 2.204l121.095 111.864L596.46 2.027l.07.066L598.774 0v4.165l119.659 110.647L1072 2.014v38.388l-.92.643-339.274 236.649L1072 169.162v38.388l-.92.643-339.274 236.649L1072 336.31v38.388l-.92.643-353.379 246.49-121.095-111.864L475.53 622.011l-.079-.073-2.228 2.059.003.003zm123.377-119.905L718.078 616.31l349.602-243.857v-30.236L705.946 457.621l361.734-252.319v-30.233L705.946 290.473l361.744-252.32V7.919L717.349 119.686l-.926-.855L596.463 7.905 475.397 119.943l-1.467-1.356L353.922 7.727 4.316 251.586v30.236l361.738-115.405L4.316 418.736v30.236l361.738-115.404L4.316 585.884v30.236l350.338-111.768 120.81 111.711.006-.006.073.07 121.06-112.032z" fill="#FF6001"/></svg>