<svg width="58" height="241" fill="none" xmlns="http://www.w3.org/2000/svg"><path d="M182.757 241v-1.595l-46.211-42.734L0 240.237v-14.826l.356-.249 131.025-91.398L0 175.681v-14.826l.356-.248 131.025-91.398L0 111.124V96.298l.356-.248L136.828.85l46.766 43.204L230.349.783l.027.026.867-.809v1.608l46.211 42.735L414 .778v14.826l-.356.248-131.025 91.399L414 65.333V80.16l-.356.248-131.025 91.398L414 129.889v14.826l-.356.249-136.472 95.198-46.766-43.204-46.759 43.274-.031-.028-.86.795.001.001zm47.647-46.309l46.913 43.339 135.016-94.182V132.17l-139.701 44.572 139.701-97.45V67.614l-139.701 44.571 139.702-97.45V3.058L277.036 46.225l-.358-.33-46.327-42.842-46.755 43.271-.567-.523-46.346-42.816L1.667 97.167v11.677l139.701-44.571-139.701 97.45v11.678l139.701-44.571L1.667 226.279v11.678l135.298-43.167 46.656 43.145.003-.003.028.027 46.752-43.268z" fill="#FF6001"/></svg>