<svg width="20" height="20" fill="none" xmlns="http://www.w3.org/2000/svg"><g opacity=".2" clip-path="url(#clip0_169_160)"><path d="M14.582 8.752l.833-.834a2.357 2.357 0 00-3.333-3.333l-8.75 8.75v3.333h3.333l1.667-1.666m2.918-9.584l3.333 3.334m.25 8.597l-1.81.948a.327.327 0 01-.474-.341l.346-2.01-1.464-1.422a.324.324 0 01.18-.554l2.024-.293.905-1.828a.326.326 0 01.585 0l.905 1.828 2.023.293a.325.325 0 01.181.554l-1.464 1.423.345 2.008a.325.325 0 01-.472.342l-1.81-.948z" stroke="#000" stroke-width="1.6" stroke-linecap="round" stroke-linejoin="round"/></g><defs><clipPath id="clip0_169_160"><path fill="#fff" d="M0 0h20v20H0z"/></clipPath></defs></svg>