<svg width="20" height="20" fill="none" xmlns="http://www.w3.org/2000/svg"><g opacity=".2" clip-path="url(#clip0_169_169)"><path d="M10.832 4.165h6.667M10.832 7.5h4.167m-4.167 5h6.667m-6.667 3.333h4.167M2.5 4.165a.833.833 0 01.833-.833h3.334a.833.833 0 01.833.833V7.5a.833.833 0 01-.833.833H3.333A.833.833 0 012.5 7.5V4.165zm0 8.334a.833.833 0 01.833-.834h3.334a.833.833 0 01.833.834v3.333a.833.833 0 01-.833.833H3.333a.834.834 0 01-.833-.833v-3.333z" stroke="#000" stroke-width="1.6" stroke-linecap="round" stroke-linejoin="round"/></g><defs><clipPath id="clip0_169_169"><path fill="#fff" d="M0 0h20v20H0z"/></clipPath></defs></svg>