<svg width="190" height="38" fill="none" xmlns="http://www.w3.org/2000/svg"><g clip-path="url(#clip0_27_704)" fill="#fff"><path d="M35.828 28.759l4.908 4.23-6.347 4.325-9.444-8.07 10.117-6.83-9.226-22.1h2.223l15.986 22.838-8.217 5.607zm-27.611 0l-4.909 4.23 6.348 4.325 9.443-8.07-10.112-6.83 9.222-22.1h-2.223L0 23.152l8.217 5.607zM77.384 4.57v3.552h-7.325l-.045 14.412h-4.161V8.121H58.5v-3.55h18.884zm58.491 5.965v1.305h10.278v3.453h-10.278v7.24h-3.951V10.469c0-3.24 2.691-5.867 6.014-5.874h8.215v3.453h-7.734c-1.405 0-2.544 1.11-2.544 2.48v.008zm20.39 0v1.305h10.277v3.453h-10.277v7.24h-3.931V10.469c0-3.232 2.679-5.856 5.994-5.874h8.214v3.453h-7.737c-1.405.002-2.542 1.114-2.54 2.484v.004zm-59.341 4.489l.23-.083c.029 0 2.856-1.029 2.856-5.061 0-3.351-2.427-5.428-6.297-5.428H83.039v18.081h4v-6.764h6.2v.027l2.876 6.737h4.449l-3.64-7.51v.001zm-2.92-2.735h-6.876V8.12h6.876c1.13-.036 2.075.827 2.112 1.928.002.052.001.105-.001.157.02 1.132-.905 2.066-2.067 2.085h-.065.02zm25.087-7.832h-6.346l-7.239 18.077h3.955l1.275-3.023h10.362l1.275 3.023h3.959l-7.239-18.077h-.002zm-6.908 11.632l2.965-7.947h1.541v.028l2.956 7.915-7.462.004zm70.569-11.632h-6.342l-7.244 18.077h3.96l1.278-3.023h10.358l1.275 3.023H190l-7.247-18.077h-.001zm-6.909 11.632l2.965-7.947h1.545v.028l2.952 7.915-7.462.004zM72.1 30.645H60.144v.727h11.954v-.727zm117.523 0h-11.955v.727h11.955v-.727zm-54.126 3.282v-5.513h1.455l1.495 4.331h.161l1.495-4.331h1.455v5.513h-.848v-4.214h-.162l-1.455 4.214h-1.131l-1.455-4.214h-.162v4.214h-.849.001zm11.943-.717c-.522.531-1.163.795-1.923.795-.759 0-1.4-.265-1.923-.794-.522-.531-.783-1.21-.783-2.04 0-.83.261-1.51.783-2.04a2.598 2.598 0 011.923-.796c.76 0 1.401.265 1.923.796.523.53.784 1.21.784 2.04 0 .83-.261 1.51-.784 2.04zm-.589-3.528c-.351-.373-.795-.559-1.334-.559-.538 0-.983.187-1.333.56-.35.372-.525.868-.525 1.488s.175 1.115.525 1.488c.351.373.795.56 1.333.56.539 0 .984-.187 1.334-.56.35-.373.525-.868.525-1.488s-.175-1.116-.525-1.489zm2.344 2.552h.849c0 .268.127.5.384.693.255.194.585.291.989.291.442 0 .768-.075.978-.224.21-.15.316-.35.316-.602 0-.404-.324-.667-.97-.788l-1.091-.197c-.442-.079-.775-.244-.998-.496-.224-.252-.336-.572-.336-.961 0-.462.184-.847.55-1.154.366-.307.856-.46 1.471-.46.678 0 1.205.166 1.58.5.374.333.561.757.561 1.27h-.848c0-.267-.118-.498-.356-.692-.237-.194-.549-.291-.937-.291-.367 0-.654.08-.861.24-.207.16-.311.355-.311.586 0 .388.283.638.848.748l.889.158c.571.1.991.272 1.257.516.267.244.4.584.4 1.02 0 .473-.186.86-.558 1.162-.371.302-.899.453-1.584.453-.684 0-1.225-.168-1.624-.505a1.591 1.591 0 01-.598-1.267zm9.737-.198h.889a2.477 2.477 0 01-.271.677c-.126.22-.292.43-.497.63-.205.2-.461.36-.768.481a2.74 2.74 0 01-1.01.181c-.759 0-1.401-.265-1.923-.794-.523-.531-.784-1.21-.784-2.04 0-.83.261-1.51.784-2.04.522-.53 1.164-.796 1.923-.796.669 0 1.227.188 1.677.563.45.376.739.831.869 1.367h-.889a1.715 1.715 0 00-.654-.846 1.771 1.771 0 00-1.002-.296c-.539 0-.983.187-1.333.56-.351.372-.526.868-.526 1.488s.175 1.115.526 1.488c.35.373.795.56 1.333.56.431 0 .788-.115 1.071-.343.282-.228.478-.509.585-.839zm6.448 1.174c-.523.531-1.163.795-1.923.795s-1.401-.265-1.923-.794c-.523-.531-.784-1.21-.784-2.04 0-.83.261-1.51.784-2.04.522-.53 1.163-.796 1.923-.796s1.401.265 1.923.796c.523.53.784 1.21.784 2.04 0 .83-.261 1.51-.784 2.04zm-.59-3.528c-.35-.373-.795-.559-1.333-.559-.538 0-.984.187-1.333.56-.351.372-.526.868-.526 1.488s.175 1.115.526 1.488c.35.373.795.56 1.333.56.538 0 .983-.187 1.333-.56.351-.373.526-.868.526-1.488s-.175-1.116-.526-1.489zm3.515 4.245l-1.414-5.513h.929l1.091 4.331h.162l1.171-4.331h1.051l1.171 4.331h.162l1.091-4.331h.929l-1.414 5.513h-1.293l-1.091-4.135h-.162l-1.091 4.135h-1.293.001zm-92.514-1.693h.848c0 .268.128.5.384.693.256.194.586.291.99.291.442 0 .768-.075.978-.224.21-.15.315-.35.315-.602 0-.404-.323-.667-.97-.788l-1.09-.197c-.442-.079-.775-.244-.998-.496-.224-.252-.336-.572-.336-.961 0-.462.183-.847.55-1.154.366-.307.856-.46 1.47-.46.679 0 1.206.166 1.58.5.375.333.562.757.562 1.27h-.848c0-.267-.119-.498-.356-.692-.237-.194-.55-.291-.938-.291-.366 0-.653.08-.86.24-.207.16-.311.355-.311.586 0 .388.283.638.848.748l.889.158c.57.1.99.272 1.257.516.266.244.4.584.4 1.02 0 .473-.186.86-.558 1.162-.371.302-.9.453-1.584.453s-1.226-.168-1.624-.505a1.59 1.59 0 01-.598-1.267zm5.617 1.693v-5.513h2.546c.474 0 .869.164 1.184.492.315.328.473.755.473 1.28 0 .526-.158.952-.473 1.28-.315.328-.71.492-1.184.492h-1.697v1.97h-.849v-.001zm.85-2.756h1.656c.23 0 .43-.092.597-.276.168-.184.25-.42.25-.709 0-.288-.083-.525-.25-.708a.78.78 0 00-.597-.276h-1.657v1.97-.002zm8.993 2.039c-.523.531-1.163.795-1.923.795s-1.4-.265-1.923-.794c-.523-.531-.784-1.21-.784-2.04 0-.83.261-1.51.784-2.04.522-.53 1.163-.796 1.923-.796s1.4.265 1.923.796c.523.53.784 1.21.784 2.04 0 .83-.261 1.51-.784 2.04zm-.59-3.528c-.35-.373-.794-.559-1.333-.559-.538 0-.983.187-1.333.56-.35.372-.526.868-.526 1.488s.175 1.115.526 1.488c.35.373.795.56 1.333.56.538 0 .983-.187 1.333-.56.35-.373.526-.868.526-1.488s-.175-1.116-.526-1.489zm2.626 4.245v-5.513h2.546c.474 0 .869.164 1.184.492.315.328.473.755.473 1.28 0 .526-.158.952-.473 1.28-.315.328-.71.492-1.184.492h-.202l2.02 1.97h-1.09l-2.021-1.97h-.404v1.97h-.849v-.001zm.849-2.756h1.657c.23 0 .43-.092.597-.276.168-.184.25-.42.25-.709 0-.288-.083-.525-.25-.708a.78.78 0 00-.597-.276h-1.657v1.97-.002zm5.858 2.756V29.2h-1.777v-.787h4.404v.787h-1.778v4.726h-.849zm3.233-1.693h.848c0 .267.128.499.384.693.256.194.586.291.99.291.441 0 .767-.075.978-.224.21-.15.315-.35.315-.602 0-.405-.323-.668-.97-.788l-1.091-.197c-.442-.079-.774-.244-.998-.496-.224-.253-.335-.572-.335-.961 0-.462.183-.848.549-1.154.367-.307.856-.46 1.471-.46.679 0 1.206.166 1.58.499.374.334.562.757.562 1.272h-.848c0-.268-.119-.499-.356-.693-.238-.194-.549-.292-.938-.292-.366 0-.653.08-.86.24-.208.16-.311.356-.311.587 0 .388.282.637.848.748l.889.158c.571.1.99.271 1.257.516.266.244.4.584.4 1.02 0 .473-.186.86-.558 1.161-.371.302-.9.453-1.584.453-.685 0-1.226-.167-1.624-.504a1.588 1.588 0 01-.598-1.268zm6.506 1.693l-1.415-5.513h.93l1.091 4.331h.161l1.172-4.331h1.05l1.172 4.331h.162l1.091-4.331h.929l-1.414 5.513h-1.294l-1.091-4.135h-.161l-1.091 4.135h-1.294.002zm7.312 0v-5.513h3.717v.787h-2.868v1.575h2.707v.788h-2.707v1.576h2.868v.787h-3.717zm4.445 0l2.061-5.513h1.293l2.061 5.513h-.93l-.485-1.3h-2.585l-.485 1.3h-.93zm1.697-2.048h2.021l-.93-2.52h-.161l-.93 2.52zm4.606 2.048v-5.513h2.546c.473 0 .868.164 1.184.492.315.328.472.755.472 1.28 0 .526-.157.952-.472 1.28a1.576 1.576 0 01-1.184.492h-.202l2.02 1.97h-1.091l-2.02-1.97h-.404v1.97h-.849v-.001zm.848-2.756h1.657a.782.782 0 00.598-.276c.167-.184.25-.42.25-.709 0-.288-.084-.525-.25-.708a.781.781 0 00-.598-.276h-1.657v1.97-.002z"/></g><defs><clipPath id="clip0_27_704"><path fill="#fff" transform="translate(0 .314)" d="M0 0h190v37H0z"/></clipPath></defs></svg>