<svg width="97" height="50" fill="none" xmlns="http://www.w3.org/2000/svg"><path d="M60.117 23.832l4.112 3.544L58.91 31 51 24.238l8.475-5.721L51.746 0h1.862L67 19.135l-6.883 4.697zm-23.234 0l-4.112 3.544L38.09 31 46 24.238l-8.472-5.721L45.254 0h-1.862L30 19.135l6.883 4.697zM13.93 36.163v2.733H8.527l-.033 11.09h-3.07v-11.09H0v-2.733h13.93zm43.146 4.589v1.004h7.58v2.657h-7.58v5.572H54.16V40.7c0-2.492 1.985-4.515 4.437-4.52h6.059v2.658h-5.704c-1.037 0-1.877.854-1.877 1.908v.006zm15.039 0v1.004h7.58v2.657h-7.58v5.572h-2.9V40.7c0-2.486 1.976-4.506 4.421-4.52h6.06v2.658h-5.708c-1.036.001-1.875.857-1.873 1.91v.004zm-43.773 3.456l.17-.064c.021 0 2.106-.792 2.106-3.895 0-2.578-1.79-4.177-4.645-4.177H18.1v13.914h2.95v-5.205h4.574v.021l2.121 5.184h3.282l-2.685-5.778zm-2.154-2.105h-5.072v-3.21h5.072a1.52 1.52 0 011.557 1.605c.015.87-.667 1.59-1.524 1.604h-.048.015zm18.506-6.029h-4.681l-5.34 13.912h2.917l.94-2.327h7.643l.94 2.327h2.92l-5.34-13.912h.001zm-5.096 8.952l2.187-6.115h1.137v.02l2.18 6.092-5.504.003zm52.056-8.952h-4.678l-5.343 13.912h2.92l.943-2.327h7.64l.94 2.327H97l-5.346-13.912zm-5.096 8.952l2.187-6.115h1.14v.02l2.177 6.092-5.504.003z" fill="#000"/></svg>