<svg width="100" height="70" fill="none" xmlns="http://www.w3.org/2000/svg"><g clip-path="url(#clip0_4_3666)" fill="#000"><path d="M63.146 26.333l4.522 3.916-5.848 4.004-8.699-7.471 9.319-6.322L53.942 0h2.047l14.726 21.143-7.569 5.19zm-25.436 0l-4.522 3.916 5.847 4.004 8.7-7.471-9.316-6.322L46.914 0h-2.047L30.14 21.143l7.569 5.19zm-23.75 17.33v2.733H8.35l-.034 11.09H5.13v-11.09H-.5v-2.733h14.46zm44.788 4.589v1.004h7.87v2.657h-7.87v5.572h-3.025V48.2c0-2.492 2.06-4.515 4.605-4.52h6.29v2.658h-5.921c-1.076 0-1.948.854-1.948 1.908v.006zm15.612 0v1.004h7.87v2.657h-7.87v5.572h-3.01V48.2c0-2.486 2.05-4.506 4.59-4.52h6.29v2.658h-5.925c-1.076.001-1.947.857-1.945 1.91v.004zm-45.44 3.456l.178-.064c.021 0 2.186-.792 2.186-3.895 0-2.578-1.858-4.177-4.822-4.177h-8.173v13.914h3.063v-5.205H26.1v.021l2.201 5.184h3.407l-2.787-5.778zm-2.235-2.105H21.42v-3.21h5.265c.864-.028 1.589.637 1.617 1.484v.12c.015.872-.694 1.59-1.583 1.605h-.05.016zm19.21-6.029h-4.859l-5.544 13.912h3.029l.975-2.327h7.935l.975 2.327h3.032l-5.544-13.912h.001zm-5.29 8.952l2.27-6.115h1.18v.02l2.264 6.092-5.714.003zm54.038-8.952h-4.856L84.24 57.486h3.032l.979-2.327h7.931l.975 2.327h3.035l-5.55-13.912zm-5.29 8.952l2.27-6.115h1.183v.02l2.26 6.092-5.713.003zM9.912 64.414H.758v.56h9.154v-.56zm89.992 0H90.75v.56h9.154v-.56zM58.459 66.94v-4.243h1.114l1.145 3.334h.123l1.145-3.334H63.1v4.243h-.65v-3.242h-.123l-1.114 3.242h-.867l-1.114-3.242h-.123v3.242h-.65zm9.145-.552c-.4.409-.89.612-1.472.612a1.981 1.981 0 01-1.473-.612c-.4-.408-.6-.931-.6-1.57 0-.638.2-1.16.6-1.569.4-.408.891-.612 1.473-.612.58 0 1.072.204 1.472.612.4.408.6.931.6 1.57 0 .638-.2 1.161-.6 1.57zm-.451-2.715a1.337 1.337 0 00-1.021-.43c-.412 0-.753.143-1.02.43-.269.287-.403.669-.403 1.146 0 .477.134.858.402 1.145.268.287.609.43 1.021.43.412 0 .753-.143 1.02-.43.269-.287.403-.669.403-1.145 0-.477-.134-.859-.402-1.146zm1.794 1.963h.65c0 .206.098.384.294.533.196.15.448.224.758.224.338 0 .588-.057.749-.172a.542.542 0 00.24-.464c0-.311-.247-.513-.742-.606l-.835-.152c-.338-.06-.593-.188-.764-.381-.171-.194-.257-.44-.257-.74 0-.355.14-.651.421-.888.28-.236.656-.354 1.126-.354.52 0 .923.128 1.21.384.287.257.43.583.43.98h-.65c0-.207-.09-.384-.272-.534-.181-.15-.42-.224-.717-.224-.281 0-.5.062-.66.185a.554.554 0 00-.237.452c0 .299.216.49.65.575l.68.121c.437.077.758.21.962.397.204.188.306.45.306.786a1.1 1.1 0 01-.427.893c-.284.233-.689.349-1.213.349-.524 0-.938-.13-1.243-.388a1.226 1.226 0 01-.458-.976zm7.455-.151h.681a1.88 1.88 0 01-.208.52 2.23 2.23 0 01-.38.486 1.738 1.738 0 01-.588.37 2.104 2.104 0 01-.773.138 1.98 1.98 0 01-1.473-.612c-.4-.408-.6-.931-.6-1.57 0-.637.2-1.16.6-1.569.4-.408.891-.612 1.472-.612.512 0 .94.144 1.285.433.344.289.566.64.665 1.052h-.68a1.32 1.32 0 00-.502-.652 1.35 1.35 0 00-.767-.227c-.413 0-.753.144-1.021.43-.268.288-.403.67-.403 1.146 0 .477.135.859.403 1.146.268.287.608.43 1.02.43.33 0 .604-.088.82-.264a1.36 1.36 0 00.45-.645zm4.938.903c-.4.409-.89.612-1.472.612a1.981 1.981 0 01-1.473-.612c-.4-.408-.6-.931-.6-1.57 0-.638.2-1.16.6-1.569.4-.408.892-.612 1.473-.612.581 0 1.072.204 1.473.612.4.408.6.931.6 1.57 0 .638-.2 1.161-.6 1.57zm-.451-2.715a1.337 1.337 0 00-1.021-.43c-.412 0-.753.143-1.02.43-.27.287-.403.669-.403 1.146 0 .477.134.858.402 1.145.268.287.609.43 1.02.43.413 0 .754-.143 1.022-.43.268-.287.402-.669.402-1.145 0-.477-.134-.859-.402-1.146zm2.692 3.267l-1.083-4.243h.712l.835 3.334h.124l.897-3.334h.805l.897 3.334h.124l.835-3.334h.712l-1.083 4.243h-.99l-.835-3.182h-.124l-.835 3.182h-.99zm-70.839-1.304h.65c0 .206.098.384.294.533.196.15.448.224.758.224.338 0 .588-.057.749-.172a.542.542 0 00.24-.464c0-.311-.246-.513-.742-.606l-.835-.152c-.338-.06-.593-.188-.764-.381-.171-.194-.257-.44-.257-.74 0-.355.14-.651.421-.888.28-.236.656-.354 1.126-.354.52 0 .923.128 1.21.384.287.257.43.583.43.98h-.65c0-.207-.09-.384-.272-.534-.181-.15-.42-.224-.717-.224-.281 0-.5.062-.66.185a.554.554 0 00-.237.452c0 .299.216.49.65.575l.68.121c.437.077.758.21.962.397.204.188.306.45.306.786a1.1 1.1 0 01-.427.893c-.284.233-.689.349-1.213.349-.524 0-.938-.13-1.244-.388a1.226 1.226 0 01-.457-.976zm4.299 1.304v-4.243h1.95c.362 0 .665.127.906.38.241.252.362.58.362.984s-.12.732-.362.985a1.201 1.201 0 01-.906.378h-1.3v1.515h-.65zm.65-2.122h1.269c.177 0 .33-.07.457-.212a.781.781 0 00.192-.545.783.783 0 00-.192-.546.598.598 0 00-.457-.212h-1.27v1.515zm6.886 1.57c-.4.409-.891.612-1.473.612a1.98 1.98 0 01-1.472-.612c-.4-.408-.6-.931-.6-1.57 0-.638.2-1.16.6-1.569.4-.408.89-.612 1.472-.612s1.073.204 1.473.612c.4.408.6.931.6 1.57 0 .638-.2 1.161-.6 1.57zm-.452-2.715a1.337 1.337 0 00-1.02-.43c-.413 0-.753.143-1.022.43-.268.287-.402.669-.402 1.146 0 .477.134.858.402 1.145.269.287.609.43 1.021.43.413 0 .753-.143 1.021-.43.268-.287.402-.669.402-1.145 0-.477-.134-.859-.402-1.146zm2.015 3.267v-4.243h1.948a1.2 1.2 0 01.906.38c.242.252.362.58.362.984s-.12.732-.362.985a1.201 1.201 0 01-.906.378h-.155l1.547 1.515h-.835l-1.547-1.515h-.31v1.515h-.65.001zm.649-2.122h1.268c.177 0 .33-.07.458-.212a.78.78 0 00.191-.545.783.783 0 00-.191-.546.598.598 0 00-.458-.212h-1.268v1.515zm4.482 2.122v-3.636h-1.36v-.607h3.371v.607h-1.361v3.636h-.65zm2.479-1.304h.65c0 .206.098.384.294.533.195.15.448.224.758.224.338 0 .587-.057.748-.172a.542.542 0 00.242-.464c0-.311-.248-.513-.743-.606l-.835-.152c-.338-.06-.593-.188-.764-.381-.172-.194-.257-.44-.257-.74 0-.355.14-.651.42-.888.282-.236.657-.354 1.127-.354.52 0 .923.128 1.21.384.286.257.43.583.43.98h-.65c0-.207-.09-.384-.272-.534-.181-.15-.42-.224-.718-.224-.28 0-.5.062-.659.185a.554.554 0 00-.238.452c0 .299.217.49.65.575l.68.121c.438.077.759.21.963.397.204.188.306.45.306.786a1.1 1.1 0 01-.427.893c-.285.233-.689.349-1.213.349-.524 0-.938-.13-1.244-.388a1.226 1.226 0 01-.458-.976zm4.98 1.304l-1.083-4.243h.711l.835 3.334h.124l.898-3.334h.804l.897 3.334h.124l.836-3.334h.711l-1.082 4.243h-.99l-.836-3.182h-.123l-.836 3.182h-.99zm5.598 0v-4.243h2.847v.607h-2.197v1.212h2.073v.606h-2.073v1.212h2.197v.606h-2.847zm3.404 0l1.578-4.243h.99l1.578 4.243h-.711l-.372-1h-1.98l-.37 1h-.713zm1.3-1.576h1.547l-.712-1.94h-.124l-.712 1.94zm3.527 1.576v-4.243h1.95c.362 0 .664.127.905.38.242.252.362.58.362.984s-.12.732-.362.985a1.201 1.201 0 01-.906.378h-.155L55.9 66.94h-.835l-1.547-1.515h-.31v1.515h-.65.001zm.65-2.122h1.268c.178 0 .33-.07.458-.212a.781.781 0 00.192-.545.783.783 0 00-.192-.546.598.598 0 00-.458-.212H53.21v1.515z"/></g><defs><clipPath id="clip0_4_3666"><path fill="#fff" d="M0 0h100v70H0z"/></clipPath></defs></svg>