<svg width="37" height="202" viewBox="0 0 37 202" fill="none" xmlns="http://www.w3.org/2000/svg">
<path d="M-156.819 202V200.663L-195.552 164.844L-310 201.36V188.933L-309.701 188.725L-199.881 112.118L-310 147.251V134.825L-309.701 134.616L-199.881 58.0088L-310 93.1416V80.7147L-309.701 80.5066L-195.315 0.713564L-156.118 36.9259L-116.929 0.65615L-116.907 0.67768L-116.181 0V1.34818L-77.4476 37.1668L37 0.652049V13.0789L36.7015 13.287L-73.1187 89.8947L37 54.7609V67.1878L36.7015 67.3959L-73.1187 144.003L37 108.87V121.297L36.7015 121.505L-77.6846 201.298L-116.882 165.085L-156.074 201.356L-156.099 201.333L-156.82 201.999L-156.819 202ZM-116.883 163.185L-77.5625 199.511L35.6028 120.57V110.782L-81.4894 148.14L35.6028 66.4598V56.6729L-81.4894 94.0315L35.6039 12.351V2.56309L-77.7985 38.7447L-78.098 38.4678L-116.928 2.55899L-156.117 38.8277L-156.592 38.3889L-195.437 2.50157L-308.603 81.4426V91.2305L-191.511 53.872L-308.603 135.552V145.34L-191.511 107.982L-308.603 189.661V199.449L-195.2 163.268L-156.095 199.431L-156.093 199.429L-156.07 199.451L-116.883 163.185Z" fill="#FF6001"/>
</svg>
