<svg width="462" height="624" fill="none" xmlns="http://www.w3.org/2000/svg"><path d="M-136.774 624v-4.13l-119.659-110.648L-610 622.024v-38.388l.922-.643 339.272-236.649L-610 454.876v-38.388l.922-.643 339.272-236.649L-610 287.724v-38.387l.922-.643 353.377-246.49 121.095 111.864L-13.54 2.027l.07.066L-11.226 0v4.165l119.659 110.647L462 2.014v38.388l-.922.643-339.272 236.649L462 169.162v38.388l-.922.643-339.272 236.649L462 336.31v38.388l-.922.643-353.377 246.49-121.095-111.864-121.076 112.044-.079-.073-2.228 2.059.003.003zm123.377-119.905L108.078 616.31l349.606-243.857v-30.236L95.946 457.621l361.738-252.319v-30.233L95.946 290.473l361.741-252.32V7.919L107.349 119.686l-.926-.855L-13.537 7.905l-121.066 112.038-1.467-1.356-120.008-110.86-349.606 243.858v30.236l361.738-115.405-361.738 252.32v30.236l361.738-115.404-361.738 252.316v30.236l350.338-111.768 120.81 111.711.006-.006.073.07 121.06-112.032z" fill="#FF6001"/></svg>