<svg width="590" height="260" fill="none" xmlns="http://www.w3.org/2000/svg"><path d="M.777 193.135V180.5L103.662 3.61h27.075V180.5h37.905v12.635h-37.905v63.175h-12.635v-63.175H.777zM17.022 180.5h101.08V16.245h-7.22l-93.86 162.45v1.805zM349.644 42.959c-15.162-20.216-33.934-30.324-56.316-30.324-22.382 0-41.274 10.108-56.677 30.324-15.162 20.216-22.743 49.216-22.743 87.001 0 37.785 7.581 66.785 22.743 87.001 15.403 20.216 34.295 30.324 56.677 30.324 22.382 0 41.154-10.108 56.316-30.324 15.403-20.216 23.104-49.216 23.104-87.001 0-37.785-7.701-66.785-23.104-87.001zm-122.018-9.025C245.436 11.311 267.336 0 293.328 0c25.992 0 47.773 11.311 65.341 33.934 17.81 22.623 26.714 54.631 26.714 96.026 0 41.395-8.904 73.403-26.714 96.026-17.568 22.623-39.349 33.934-65.341 33.934-25.992 0-47.892-11.311-65.702-33.934-17.568-22.623-26.353-54.631-26.353-96.026 0-41.395 8.785-73.403 26.353-96.026zm193.73 159.201V180.5L524.241 3.61h27.075V180.5h37.905v12.635h-37.905v63.175h-12.635v-63.175H421.356zm16.245-12.635h101.08V16.245h-7.22l-93.86 162.45v1.805z" opacity=".1" fill="#000"/></svg>