<svg width="124" height="305" fill="none" xmlns="http://www.w3.org/2000/svg"><path d="M-168.126 305v-2.019l-58.378-54.082L-399 304.034v-18.763l.45-.315 165.521-115.669L-399 222.335v-18.763l.45-.315 165.521-115.67L-399 140.636v-18.764l.45-.314 172.403-120.48 59.079 54.677L-108.003.991l.034.032L-106.874 0v2.036l58.378 54.082L124 .985v18.763l-.45.314-165.521 115.67L124 82.683v18.764l-.45.314-165.521 115.67L124 164.382v18.764l-.45.314-172.403 120.48-59.079-54.677-59.07 54.765-.038-.036-1.087 1.006.001.002zm60.192-58.607l59.265 54.848 170.563-119.193V167.27l-176.482 56.407 176.482-123.329V85.57l-176.482 56.408 176.484-123.33V3.87L-49.024 58.5l-.452-.417-58.526-54.22-59.064 54.763-.716-.663-58.549-54.186-170.563 119.193v14.779l176.482-56.408-176.482 123.33v14.779l176.482-56.408-176.482 123.328v14.779l170.92-54.631 58.94 54.603.003-.003.036.034 59.061-54.759z" fill="#FF6001"/></svg>