<svg width="79" height="28" fill="none" xmlns="http://www.w3.org/2000/svg"><rect x=".36" width="78" height="28" rx="3" fill="#000"/><g clip-path="url(#clip0_138_31211)" fill="#fff"><path d="M18.666 9.13H17.09v7.653h1.576V9.13zm-3.386.429h-1.574v7.651h1.575V9.56zm-3.384.478h-1.575v7.653h1.575v-7.653zm-3.385.483H6.936v7.654h1.575V10.52zm51.758 2.687l-2.537-2.701H56.25v6.254h1.549v-3.99l2.315 2.364h.286l2.276-2.364v3.99h1.548v-6.254H62.74l-2.471 2.701zm11.33-2.701l-3.837 4.065v-4.065h-1.549v6.254h1.42l3.836-4.065v4.065h1.548v-6.254h-1.418zm-23.688 2.288c0 .996.569 1.78 1.441 2.11l-1.636 1.856h1.895l1.489-1.689h1.61v1.69h1.548v-6.255h-3.941c-1.47 0-2.406.963-2.406 2.288zm4.8-.91v1.849h-2.107c-.703 0-1.08-.376-1.08-.926s.39-.925 1.08-.925l2.107.001zm-11.994-.127c-.095 2.15-.569 3.54-1.496 3.54h-.232v1.5l.247.013c1.86.1 2.888-1.464 3.056-4.878h2.447v4.828h1.545v-6.254h-5.515l-.052 1.25zm-5.827-1.339c-2.094 0-3.6 1.388-3.6 3.214 0 1.889 1.639 3.228 3.6 3.228 2.042 0 3.63-1.414 3.63-3.228 0-1.814-1.588-3.214-3.63-3.214zm0 4.94c-1.184 0-1.99-.737-1.99-1.726 0-1.013.807-1.73 1.99-1.73 1.182 0 2.016.75 2.016 1.73s-.845 1.727-2.016 1.727zm-5.242-4.84h-5.464l-.052 1.25c-.078 1.802-.569 3.516-1.496 3.54l-.43.014v2.852l1.562-.003v-1.41h5.424v1.41h1.575v-2.862h-1.12v-4.791zm-1.549 4.79h-3.303c.559-.812.858-1.988.91-3.364H28.1v3.365z"/></g><defs><clipPath id="clip0_138_31211"><rect x="5.36" y="6" width="68" height="16" rx="5" fill="#fff"/></clipPath></defs></svg>