<svg width="37" height="13" fill="none" xmlns="http://www.w3.org/2000/svg"><path fill-rule="evenodd" clip-rule="evenodd" d="M33.402 12.165s-.263-1.606-.351-2.008h-3.805c-.104.315-.63 2.008-.63 2.008h-3.104l4.401-10.496a1.451 1.451 0 011.543-.962h2.297l2.402 11.458h-2.753zm-1.525-7.383l-.211-.98c-.14.437-.404 1.12-.386 1.102 0 0-.947 2.536-1.174 3.2h2.454c-.12-.578-.683-3.322-.683-3.322zm-6.383-1.434a4.962 4.962 0 00-2.208-.437c-1.176 0-1.702.49-1.72.98 0 .542.633.89 1.683 1.412 1.702.805 2.49 1.801 2.473 3.112-.018 2.361-2.034 3.9-5.155 3.9a9.027 9.027 0 01-3.298-.611l.404-2.571.403.192a5.96 5.96 0 002.77.612c.86 0 1.771-.35 1.79-1.12 0-.506-.386-.874-1.544-1.433-1.122-.542-2.612-1.451-2.595-3.095C18.515 2.068 20.566.51 23.494.51a7.52 7.52 0 012.665.471l-.403 2.484-.262-.118zM12.45 12.165L14.308.707h2.962l-1.858 11.458H12.45zm-7.134 0l-2.483-9.33c.403.203.785.446 1.14.725a12.412 12.412 0 012.73 3.126l.049.247.315 1.574 2.91-7.8h3.14L8.451 12.165H5.316z" fill="#1470B0"/><path opacity=".5" fill-rule="evenodd" clip-rule="evenodd" d="M3.97 3.56a6.776 6.776 0 00-1.14-.725L2.663 2.2A11.87 11.87 0 000 1.08V.724h4.552a1.192 1.192 0 011.164.943L6.7 6.683A12.415 12.415 0 003.97 3.56z" fill="#FFB927"/></svg>