<svg width="28" height="17" fill="none" xmlns="http://www.w3.org/2000/svg"><path fill-rule="evenodd" clip-rule="evenodd" d="M10.266 8.413a8.39 8.39 0 003.365 6.719 8.42 8.42 0 01-8.817.81 8.413 8.413 0 118.817-14.248 8.395 8.395 0 00-3.365 6.719z" fill="#EC0020"/><path opacity=".5" fill-rule="evenodd" clip-rule="evenodd" d="M18.678 16.825a8.368 8.368 0 01-5.047-1.694 8.392 8.392 0 000-13.437A8.412 8.412 0 0121.185.389a8.411 8.411 0 014.318 12.945 8.406 8.406 0 01-6.825 3.491z" fill="#FE9A0C"/><path opacity=".75" fill-rule="evenodd" clip-rule="evenodd" d="M10.266 8.412a8.39 8.39 0 013.365-6.718 8.391 8.391 0 010 13.437 8.397 8.397 0 01-3.365-6.719z" fill="#FC5D1D"/></svg>