<svg width="37" height="16" fill="none" xmlns="http://www.w3.org/2000/svg"><g clip-path="url(#clip0_153_23365)"><path d="M35.498 5.913v6h-2.024V7.704h-1.95v4.209h-2.026v-6h6z" fill="#000"/><path fill-rule="evenodd" clip-rule="evenodd" d="M25.043 12.913c1.983 0 3.456-1.235 3.456-3.107 0-1.811-1.087-2.988-2.902-2.988-.838 0-1.53.3-2.05.817.124-1.068 1.014-1.848 1.993-1.848l1.927-.004.963-1.87s-2.137.05-3.13.05c-2.269.04-3.802 2.134-3.802 4.678 0 2.964 1.495 4.272 3.545 4.272zm.012-4.438c.737 0 1.247.491 1.247 1.331 0 .756-.453 1.38-1.247 1.38-.758 0-1.269-.576-1.269-1.367 0-.84.51-1.344 1.27-1.344z" fill="#000"/><path d="M19.556 10.704s-.531.318-1.325.378c-.912.028-1.725-.57-1.725-1.631 0-1.035.717-1.629 1.702-1.629.604 0 1.403.434 1.403.434s.585-1.112.887-1.668c-.554-.436-1.293-.675-2.152-.675-2.168 0-3.848 1.466-3.848 3.525 0 2.085 1.579 3.517 3.848 3.474.634-.025 1.51-.256 2.043-.61l-.833-1.598z" fill="#000"/><path d="M.33 4.09l1.825 3.247v1.981l-1.822 3.24L.33 4.091z" fill="#5B57A2"/><path d="M7.334 6.157l1.71-1.044 3.498-.003-5.208 3.177v-2.13z" fill="#D90751"/><path d="M7.325 4.07l.01 4.3-1.829-1.12V.826l1.819 3.246z" fill="#FAB718"/><path d="M12.542 5.109l-3.498.003-1.719-1.041L5.506.825l7.036 4.284z" fill="#ED6F26"/><path d="M7.335 12.576v-2.085L5.506 9.393l.001 6.433 1.828-3.25z" fill="#63B22F"/><path d="M9.04 11.543L2.154 7.337.33 4.091l12.203 7.448-3.495.004z" fill="#1487C9"/><path d="M5.506 15.827l1.827-3.25 1.705-1.033 3.495-.004-7.027 4.287z" fill="#017F36"/><path d="M.334 12.56l5.189-3.165-1.745-1.066-1.622.99-1.822 3.24z" fill="#984995"/></g><defs><clipPath id="clip0_153_23365"><path fill="#fff" transform="translate(.499 .913)" d="M0 0h36v15H0z"/></clipPath></defs></svg>