<svg width="45" height="13" fill="none" xmlns="http://www.w3.org/2000/svg"><path fill-rule="evenodd" clip-rule="evenodd" d="M11.226 12.133V5.337h-.3l-2.154 6.797H6.207L4.061 5.337h-.298v6.797H.09V.694h3.678A2.14 2.14 0 015.82 2.2l1.512 5.288h.318L9.164 2.2a2.143 2.143 0 012.06-1.508H14.9v11.441h-3.678.003zm14.068 0V5.396h-.29l-2.509 5.644a1.856 1.856 0 01-1.696 1.093h-3.214V.693h3.702V7.43h.303l2.54-5.654.02-.043V1.73A1.861 1.861 0 0125.82.692h3.215v11.441h-3.741zm14.594-3.359h-4.41v3.36h-3.743V6.076h12.438a4.586 4.586 0 01-4.285 2.698z" fill="#52B461"/><g opacity=".7" fill-rule="evenodd" clip-rule="evenodd"><path d="M44.408 4.73h-7.114c-3.09 0-5.659-1.865-6.2-4.038h9.127c2.363 0 4.278 1.638 4.278 3.389 0 .22-.03.438-.09.65z" fill="#6A6A6A"/><path d="M44.408 4.73h-7.114c-3.09 0-5.659-1.865-6.2-4.038h9.127c2.363 0 4.278 1.638 4.278 3.389 0 .22-.03.438-.09.65z" fill="url(#paint0_linear_153_23360)"/></g><defs><linearGradient id="paint0_linear_153_23360" x1="11893.6" y1="388.348" x2="11626.8" y2="388.348" gradientUnits="userSpaceOnUse"><stop stop-color="#198ECA"/><stop offset="1" stop-color="#1DB5E4"/></linearGradient></defs></svg>