<svg width="37" height="13" fill="none" xmlns="http://www.w3.org/2000/svg"><path fill-rule="evenodd" clip-rule="evenodd" d="M33.904 12.566s-.263-1.606-.351-2.008h-3.805c-.105.315-.63 2.008-.63 2.008h-3.104L30.415 2.07a1.451 1.451 0 011.543-.962h2.297l2.402 11.458h-2.753zm-1.526-7.383l-.21-.98c-.14.438-.404 1.12-.386 1.102 0 0-.947 2.536-1.174 3.2h2.454c-.121-.578-.684-3.322-.684-3.322zm-6.382-1.434a4.962 4.962 0 00-2.209-.437c-1.175 0-1.701.49-1.719.98 0 .542.632.891 1.683 1.413 1.701.804 2.49 1.8 2.473 3.112-.018 2.36-2.034 3.899-5.156 3.899a9.027 9.027 0 01-3.298-.611l.404-2.571.404.192a5.96 5.96 0 002.77.612c.86 0 1.771-.35 1.79-1.119 0-.507-.387-.875-1.544-1.433-1.122-.543-2.613-1.452-2.595-3.096.017-2.221 2.069-3.778 4.997-3.778a7.52 7.52 0 012.665.471l-.404 2.484-.26-.118zm-13.044 8.817L14.81 1.108h2.961l-1.857 11.458h-2.962zm-7.134 0l-2.483-9.33c.403.203.785.446 1.14.725a12.412 12.412 0 012.73 3.126l.048.247.316 1.574 2.91-7.8h3.139L8.954 12.566H5.818z" fill="#fff"/><path opacity=".5" fill-rule="evenodd" clip-rule="evenodd" d="M4.472 3.962a6.776 6.776 0 00-1.14-.726l-.169-.635a11.87 11.87 0 00-2.661-1.12v-.356h4.552a1.192 1.192 0 011.164.943l.985 5.016a12.415 12.415 0 00-2.73-3.122z" fill="#fff"/></svg>