<svg width="28" height="18" fill="none" xmlns="http://www.w3.org/2000/svg"><path fill-rule="evenodd" clip-rule="evenodd" d="M10.768 8.814a8.39 8.39 0 003.365 6.719 8.42 8.42 0 01-8.817.81 8.413 8.413 0 118.817-14.248 8.395 8.395 0 00-3.365 6.719z" fill="#fff"/><path opacity=".5" fill-rule="evenodd" clip-rule="evenodd" d="M19.18 17.226a8.369 8.369 0 01-5.048-1.694 8.389 8.389 0 000-13.437A8.413 8.413 0 0121.686.79a8.411 8.411 0 014.319 12.945 8.408 8.408 0 01-6.825 3.491z" fill="#fff"/><path opacity=".75" fill-rule="evenodd" clip-rule="evenodd" d="M10.768 8.813a8.392 8.392 0 013.364-6.718 8.39 8.39 0 010 13.437 8.397 8.397 0 01-3.364-6.719z" fill="#fff"/></svg>