<svg width="45" height="12" fill="none" xmlns="http://www.w3.org/2000/svg"><path fill-rule="evenodd" clip-rule="evenodd" d="M11.727 11.535V4.737h-.3l-2.153 6.798H6.709L4.563 4.737h-.299v6.798H.592V.093H4.27a2.14 2.14 0 012.052 1.508l1.511 5.288h.319L9.666 1.6A2.143 2.143 0 0111.725.093h3.678v11.442h-3.678.002zm14.069-.001V4.797h-.29l-2.509 5.645a1.856 1.856 0 01-1.696 1.092h-3.214V.095h3.702V6.83h.303l2.54-5.654.02-.043V1.13a1.861 1.861 0 011.67-1.037h3.214v11.441h-3.74zM40.39 8.175h-4.41v3.36h-3.744V5.478h12.438a4.586 4.586 0 01-4.285 2.697z" fill="#fff"/><path opacity=".7" fill-rule="evenodd" clip-rule="evenodd" d="M44.91 4.131h-7.115c-3.09 0-5.658-1.865-6.2-4.038h9.127C43.085.093 45 1.731 45 3.482c0 .22-.03.438-.09.65z" fill="#fff"/></svg>