<svg width="51" height="18" fill="none" xmlns="http://www.w3.org/2000/svg"><path fill-rule="evenodd" clip-rule="evenodd" d="M46.633 17.311s-.392-2.386-.523-2.984h-5.652c-.157.468-.938 2.984-.938 2.984h-4.612l6.54-15.595A2.158 2.158 0 0143.74.286h3.413l3.57 17.025h-4.09zm-2.268-10.97l-.313-1.456c-.208.65-.6 1.664-.572 1.638 0 0-1.407 3.768-1.745 4.755h3.647c-.18-.86-1.017-4.937-1.017-4.937zm-9.483-2.13a7.387 7.387 0 00-3.281-.65c-1.746 0-2.528.728-2.554 1.455 0 .806.938 1.325 2.5 2.105 2.527 1.2 3.7 2.676 3.674 4.624-.026 3.508-3.022 5.794-7.66 5.794a13.436 13.436 0 01-4.9-.908l.6-3.82.6.286a8.9 8.9 0 004.116.91c1.276 0 2.63-.52 2.657-1.664 0-.753-.573-1.3-2.293-2.13-1.667-.806-3.882-2.157-3.856-4.6C24.512 2.313 27.56 0 31.91 0a11.19 11.19 0 013.96.7l-.6 3.69-.388-.179zm-19.381 13.1L18.26.286h4.4L19.9 17.311h-4.4zm-10.6 0L.974 2.542C.84 2.464.7 2.393.563 2.318H3.19l.97.687 1.782 2.72.756 2.087.338 1.725.47 2.34L11.83.286h4.663L9.564 17.31H4.9z" fill="#1470B0"/></svg>