<svg width="45" height="25" fill="none" xmlns="http://www.w3.org/2000/svg"><path d="M12.5 25C19.404 25 25 19.404 25 12.5S19.404 0 12.5 0 0 5.596 0 12.5 5.596 25 12.5 25z" fill="#EC0020"/><path d="M32.5 25C39.404 25 45 19.404 45 12.5S39.404 0 32.5 0 20 5.596 20 12.5 25.596 25 32.5 25z" fill="#FE9A0C"/><path fill-rule="evenodd" clip-rule="evenodd" d="M8.561 15.96H7.443l1.023-5.692h-.019l-2.09 5.692H5l-.025-5.692h-.019l-.83 5.692H3l1.225-6.991h1.75l.075 5.446h.019l1.983-5.446h1.73L8.564 15.96h-.003zm8.423-3.9a6.097 6.097 0 00-1.5-.109c-.606.073-.738.256-.776.468-.139.783 2.62.032 2.285 1.846a2.114 2.114 0 01-2.166 1.751 4.367 4.367 0 01-1.786-.241l.164-.958c.562.12 1.137.172 1.711.154a.95.95 0 00.928-.5c.152-.826-2.6-.2-2.267-2.048a1.827 1.827 0 012.021-1.457 5.617 5.617 0 011.541.234l-.152.862-.003-.002zm.632-.231l.41-1.847h1.118l-.24.925h.696l-.17.921h-.7l-.492 2.669c-.051.293-.063.4.391.4.079 0 .157-.008.234-.022l-.158.994c-.177.008-.379.132-.556.132h-.139a.845.845 0 01-.94-1.192l.543-2.984.003.004zm2.694 2.13a.797.797 0 00.415.996c.12.055.253.08.385.07a2.964 2.964 0 001.951-.564l-.177.922a2.923 2.923 0 01-1.989.563c-1.193 0-2-.665-1.623-2.684.114-.592.638-2.494 2.494-2.494.84 0 1.914.719 1.5 2.965l-.038.226H20.31zM22.231 13c.083-.8-.315-1.163-.675-1.163A1.31 1.31 0 0020.5 13h1.736-.005zm1.737-2.005h1.067l-.158.754h.023a1.62 1.62 0 011.345-.973c.076 0 .24.037.31.044l-.411 1.28a1.3 1.3 0 00-1.49 1.155l-.467 2.754h-1.118l.9-5.014h-.001zm6.75-.533a1.856 1.856 0 00-1.395-.249c-.568.1-1.5.439-1.85 2.318-.177.958-.082 2.106.839 2.325a2.26 2.26 0 001.863-.358l-.3 1.207c-.133.051-.253.388-1.635.3-1.528-.1-2.406-1.2-1.983-3.495.423-2.318 1.8-3.518 3.283-3.5a1.85 1.85 0 011.383.621l-.2.834-.005-.003zm10.078 5.5H39.7l.113-.755H39.8a1.621 1.621 0 01-1.37.738c-1.263 0-1.554-1.287-1.308-2.639.316-1.7 1.3-2.539 2.236-2.539a1.06 1.06 0 011.086.769h.019l.429-2.55h1.118L40.8 15.96l-.004.002zm-1.894-1.077a1.47 1.47 0 001.25-1.412c.145-.79.095-1.587-.669-1.587a1.526 1.526 0 00-1.225 1.515c-.108.577-.07 1.484.644 1.484zm-4.85-.11s-.107.527-.132.79l-.057.443h-.991a4.327 4.327 0 010-.772 2.033 2.033 0 01-1.5.709 1.043 1.043 0 01-1.03-1.426 1.787 1.787 0 011.529-1.572l1.035-.176c.183-.029.41.11.467-.168a.548.548 0 00-.365-.64.545.545 0 00-.266-.018 3.922 3.922 0 00-1.711.322l.252-.958a3.363 3.363 0 011.781-.323c.6.023 1.654.213 1.452 1.4l-.461 2.384-.003.005zm-.877-1.353a1.81 1.81 0 01-.809.264.9.9 0 00-.89.745.432.432 0 00.041.41.43.43 0 00.369.183 1.227 1.227 0 001.175-.973l.114-.629zm1.913-2.428h1.067L36 11.84h.019a1.623 1.623 0 011.345-.973c.076 0 .24.037.31.044l-.411 1.279a1.22 1.22 0 00-.24-.015 1.16 1.16 0 00-1.25 1.077l-.467 2.754h-1.118l.9-5.014v.002zm-22.3 3.781s-.107.527-.133.79l-.056.444H11.6a4.535 4.535 0 010-.773 2.059 2.059 0 01-1.5.772 1.102 1.102 0 01-1.092-.966c-.022-.177 0-.357.063-.523a1.791 1.791 0 011.528-1.572l1.036-.176a.5.5 0 00.467-.387c.095-.548-.347-.463-.631-.471a3.936 3.936 0 00-1.712.322l.253-.958a3.36 3.36 0 011.781-.322c.6.023 1.654.213 1.452 1.4l-.461 2.416.004.004zm-.878-1.353a1.797 1.797 0 01-.808.264.9.9 0 00-.89.745.432.432 0 00.041.41.43.43 0 00.369.183 1.227 1.227 0 001.175-.973l.113-.629z" fill="#fff"/><path fill-rule="evenodd" clip-rule="evenodd" d="M8.561 15.96H7.443l1.023-5.692h-.019l-2.09 5.692H5l-.025-5.692h-.019l-.83 5.692H3l1.225-6.991h1.75l.075 5.446h.019l1.983-5.446h1.73L8.564 15.96h-.003zm8.423-3.9a6.097 6.097 0 00-1.5-.109c-.606.073-.738.256-.776.468-.139.783 2.62.032 2.285 1.846a2.114 2.114 0 01-2.166 1.751 4.367 4.367 0 01-1.786-.241l.164-.958c.562.12 1.137.172 1.711.154a.95.95 0 00.928-.5c.152-.826-2.6-.2-2.267-2.048a1.827 1.827 0 012.021-1.457 5.617 5.617 0 011.541.234l-.152.862-.003-.002zm.632-.231l.41-1.847h1.118l-.24.925h.696l-.17.921h-.7l-.492 2.669c-.051.293-.063.4.391.4.079 0 .157-.008.234-.022l-.158.994c-.177.008-.379.132-.556.132h-.139a.845.845 0 01-.94-1.192l.543-2.984.003.004zm2.694 2.13a.797.797 0 00.415.996c.12.055.253.08.385.07a2.964 2.964 0 001.951-.564l-.177.922a2.923 2.923 0 01-1.989.563c-1.193 0-2-.665-1.623-2.684.114-.592.638-2.494 2.494-2.494.84 0 1.914.719 1.5 2.965l-.038.226H20.31zM22.231 13c.083-.8-.315-1.163-.675-1.163A1.31 1.31 0 0020.5 13h1.736-.005zm1.737-2.005h1.067l-.158.754h.023a1.62 1.62 0 011.345-.973c.076 0 .24.037.31.044l-.411 1.28a1.3 1.3 0 00-1.49 1.155l-.467 2.754h-1.118l.9-5.014h-.001zm6.75-.533a1.856 1.856 0 00-1.395-.249c-.568.1-1.5.439-1.85 2.318-.177.958-.082 2.106.839 2.325a2.26 2.26 0 001.863-.358l-.3 1.207c-.133.051-.253.388-1.635.3-1.528-.1-2.406-1.2-1.983-3.495.423-2.318 1.8-3.518 3.283-3.5a1.85 1.85 0 011.383.621l-.2.834-.005-.003zm10.078 5.5H39.7l.113-.755H39.8a1.621 1.621 0 01-1.37.738c-1.263 0-1.554-1.287-1.308-2.639.316-1.7 1.3-2.539 2.236-2.539a1.06 1.06 0 011.086.769h.019l.429-2.55h1.118L40.8 15.96l-.004.002zm-1.894-1.077a1.47 1.47 0 001.25-1.412c.145-.79.095-1.587-.669-1.587a1.526 1.526 0 00-1.225 1.515c-.108.577-.07 1.484.644 1.484zm-4.85-.11s-.107.527-.132.79l-.057.443h-.991a4.327 4.327 0 010-.772 2.033 2.033 0 01-1.5.709 1.043 1.043 0 01-1.03-1.426 1.787 1.787 0 011.529-1.572l1.035-.176c.183-.029.41.11.467-.168a.548.548 0 00-.365-.64.545.545 0 00-.266-.018 3.922 3.922 0 00-1.711.322l.252-.958a3.363 3.363 0 011.781-.323c.6.023 1.654.213 1.452 1.4l-.461 2.384-.003.005zm-.877-1.353a1.81 1.81 0 01-.809.264.9.9 0 00-.89.745.432.432 0 00.041.41.43.43 0 00.369.183 1.227 1.227 0 001.175-.973l.114-.629zm1.913-2.428h1.067L36 11.84h.019a1.623 1.623 0 011.345-.973c.076 0 .24.037.31.044l-.411 1.279a1.22 1.22 0 00-.24-.015 1.16 1.16 0 00-1.25 1.077l-.467 2.754h-1.118l.9-5.014v.002zm-22.3 3.781s-.107.527-.133.79l-.056.444H11.6a4.535 4.535 0 010-.773 2.059 2.059 0 01-1.5.772 1.102 1.102 0 01-1.092-.966c-.022-.177 0-.357.063-.523a1.791 1.791 0 011.528-1.572l1.036-.176a.5.5 0 00.467-.387c.095-.548-.347-.463-.631-.471a3.936 3.936 0 00-1.712.322l.253-.958a3.36 3.36 0 011.781-.322c.6.023 1.654.213 1.452 1.4l-.461 2.416.004.004zm-.878-1.353a1.797 1.797 0 01-.808.264.9.9 0 00-.89.745.432.432 0 00.041.41.43.43 0 00.369.183 1.227 1.227 0 001.175-.973l.113-.629z" fill="#fff"/></svg>