<svg width="66" height="17" fill="none" xmlns="http://www.w3.org/2000/svg"><path fill-rule="evenodd" clip-rule="evenodd" d="M16.546 17V6.9H16.1L12.9 17H9.089L5.9 6.9h-.443V17H0V0h5.465a3.175 3.175 0 013.049 2.24l2.246 7.857h.473l2.25-7.857A3.179 3.179 0 0116.546 0h5.465v17h-5.465zm20.904 0V6.99h-.43l-3.728 8.386A2.76 2.76 0 0130.772 17h-4.776V0h5.5v10.011h.451l3.774-8.4.03-.064v-.006a2.76 2.76 0 012.481-1.54h4.776v17H37.45zm21.683-4.992h-6.552V17H47.02V8h18.482a6.82 6.82 0 01-6.368 4.008z" fill="#52B461"/><path fill-rule="evenodd" clip-rule="evenodd" d="M65.85 6H55.277c-4.59 0-8.408-2.772-9.212-6h13.561c3.511 0 6.356 2.434 6.356 5.035 0 .326-.045.651-.134.965z" fill="url(#paint0_linear_107_39187)"/><defs><linearGradient id="paint0_linear_107_39187" x1="17672" y1="576" x2="17275.5" y2="576" gradientUnits="userSpaceOnUse"><stop stop-color="#198ECA"/><stop offset="1" stop-color="#1DB5E4"/></linearGradient></defs></svg>