<svg width="92" height="46" fill="none" xmlns="http://www.w3.org/2000/svg"><path d="M79.553 13.13v11.247h-4.032v-7.89h-3.883v7.89h-4.032V13.13h11.948z" fill="#000"/><path fill-rule="evenodd" clip-rule="evenodd" d="M59.323 24.779c3.61 0 6.29-2.204 6.29-5.546 0-3.234-1.977-5.334-5.283-5.334-1.525 0-2.784.535-3.732 1.458.226-1.907 1.846-3.3 3.629-3.3l3.51-.006 1.751-3.339s-3.89.088-5.697.088c-4.131.072-6.922 3.811-6.922 8.353 0 5.291 2.722 7.626 6.454 7.626zm.022-7.923c1.34 0 2.27.877 2.27 2.377 0 1.35-.826 2.462-2.27 2.465-1.381 0-2.31-1.03-2.31-2.442 0-1.5.929-2.4 2.31-2.4z" fill="#000"/><path d="M49.588 20.612s-.953.546-2.375.65c-1.635.048-3.092-.98-3.092-2.808 0-1.782 1.285-2.804 3.05-2.804 1.083 0 2.515.747 2.515.747s1.048-1.914 1.59-2.872c-.993-.75-2.317-1.162-3.857-1.162-3.886 0-6.896 2.524-6.896 6.069 0 3.59 2.83 6.054 6.896 5.98 1.137-.042 2.705-.44 3.661-1.051l-1.492-2.75z" fill="#000"/><path d="M0 10.013l5.594 9.957v6.073L.007 35.981 0 10.013z" fill="#5B57A2"/><path d="M21.479 16.346l5.241-3.199 10.728-.01-15.97 9.742v-6.533z" fill="#D90751"/><path d="M21.448 9.954l.03 13.183-5.607-3.431V0l5.577 9.954z" fill="#FAB718"/><path d="M37.447 13.137l-10.728.01-5.27-3.193L15.87 0l21.576 13.137z" fill="#ED6F26"/><path d="M21.478 36.036V29.64l-5.607-3.366L15.874 46l5.604-9.964z" fill="#63B22F"/><path d="M26.707 32.866L5.594 19.97 0 10.013l37.425 22.84-10.718.013z" fill="#1487C9"/><path d="M15.875 46l5.603-9.964 5.229-3.17 10.718-.013L15.875 46z" fill="#017F36"/><path d="M.006 35.98l15.91-9.705-5.349-3.268-4.974 3.036-5.587 9.938z" fill="#984995"/><path d="M44.122 31.946a1.158 1.158 0 01-.48.354c-.2.08-.413.122-.628.121a1.79 1.79 0 01-.629-.105 1.357 1.357 0 01-.803-.769 1.595 1.595 0 01-.113-.61c0-.206.036-.398.11-.58.071-.181.175-.337.304-.469.13-.133.286-.235.46-.315.179-.077.373-.118.587-.118.23 0 .444.029.638.086.194.057.36.153.495.287l-.236.399a1.112 1.112 0 00-.395-.23A1.392 1.392 0 0043 29.93a.996.996 0 00-.69.277 1.008 1.008 0 00-.298.733 1.003 1.003 0 00.308.738c.094.09.204.156.33.201.127.048.26.07.402.07.175 0 .334-.035.47-.102.134-.065.255-.155.356-.265l.243.364zm.667.408v-2.839h.512v2.115l1.665-2.115h.512v2.84h-.512V30.24L45.3 32.353h-.512zm6.08-.408c-.126.157-.291.28-.48.354-.199.08-.412.122-.628.121a1.79 1.79 0 01-.628-.105 1.356 1.356 0 01-.803-.769 1.595 1.595 0 01-.114-.61c0-.206.036-.398.11-.58.072-.181.175-.337.305-.469.13-.133.285-.235.46-.315.184-.081.384-.121.586-.118.23 0 .444.029.638.086.195.057.36.153.496.287l-.237.399a1.107 1.107 0 00-.395-.23 1.393 1.393 0 00-.43-.067.971.971 0 00-.907.596.999.999 0 00-.082.415 1.004 1.004 0 00.308.737c.094.09.204.156.33.201.127.044.26.07.402.07.175 0 .33-.035.47-.102.134-.065.255-.155.356-.265l.243.364zm.263-2.43h2.626v.504h-1.056v2.334h-.511V30.02h-1.056v-.505h-.003z" fill="#000"/><path fill-rule="evenodd" clip-rule="evenodd" d="M56.148 32.326c.195-.061.36-.154.502-.281l-.155-.396a1.2 1.2 0 01-.372.211 1.446 1.446 0 01-.512.086c-.282 0-.515-.073-.7-.223-.185-.15-.285-.36-.308-.629h2.216a1.52 1.52 0 00.032-.34 1.28 1.28 0 00-.392-.942 1.268 1.268 0 00-.427-.264 1.637 1.637 0 00-1.156.022 1.331 1.331 0 00-.751.785 1.632 1.632 0 00-.102.58c0 .223.04.427.11.61a1.34 1.34 0 00.797.768 1.947 1.947 0 001.218.013zm-1.295-2.185c.158-.144.369-.214.634-.214.25 0 .45.067.597.201.146.134.223.32.236.555h-1.75a.866.866 0 01.283-.542z" fill="#000"/><path d="M57.547 29.515h.466l1.108 1.407 1.05-1.407h.453v2.84h-.512v-2.07l-.997 1.317h-.02l-1.036-1.318v2.07h-.512v-2.839z" fill="#000"/><path fill-rule="evenodd" clip-rule="evenodd" d="M62.018 29.525c-.156.04-.304.104-.44.188l.135.402c.117-.057.233-.105.35-.146.117-.042.266-.062.444-.062.142 0 .256.023.343.068a.452.452 0 01.198.182.772.772 0 01.09.283c.017.112.023.233.023.364a.879.879 0 00-.35-.144 2.015 2.015 0 00-.369-.038c-.152 0-.295.023-.431.06a.953.953 0 00-.346.173.822.822 0 00-.311.67c0 .277.08.494.242.648.163.153.376.229.642.229.24 0 .43-.041.576-.124.146-.084.263-.179.347-.287v.366h.48v-1.741c0-.37-.081-.657-.246-.858-.163-.201-.45-.303-.859-.303-.182 0-.353.025-.518.07zm.855 2.3c-.116.083-.269.12-.457.12-.165 0-.294-.04-.385-.12a.42.42 0 01-.136-.326c0-.08.016-.146.052-.207a.474.474 0 01.14-.147.61.61 0 01.197-.086.9.9 0 01.226-.029c.253 0 .47.06.648.188v.36c-.084.095-.18.178-.285.247zm5.287-3.308a.787.787 0 00.291-.245l-.279-.4a.562.562 0 01-.242.199 1.546 1.546 0 01-.299.082l-.097.018-.272.046a2.021 2.021 0 00-.453.14c-.23.1-.415.233-.554.402-.14.17-.25.36-.324.572a2.975 2.975 0 00-.152.66 5.83 5.83 0 00-.04.66c0 .271.036.517.108.737.071.22.171.405.304.555.133.153.292.268.48.35.188.084.398.125.634.125.218 0 .418-.041.6-.118a1.418 1.418 0 00.771-.778c.074-.176.11-.364.11-.562a1.72 1.72 0 00-.094-.58 1.182 1.182 0 00-.69-.73 1.478 1.478 0 00-.917-.055 1.392 1.392 0 00-.593.344.936.936 0 00-.187.272h-.014c.01-.131.027-.265.056-.402s.07-.268.126-.393c.055-.124.126-.236.214-.338a.969.969 0 01.337-.239c.14-.067.29-.115.444-.143l.101-.019c.101-.018.198-.036.29-.055a1.58 1.58 0 00.34-.105zm-1.801 2.727a1.583 1.583 0 01-.072-.497.8.8 0 01.117-.271.953.953 0 01.21-.23 1.07 1.07 0 01.668-.226c.301 0 .528.092.686.274.16.185.237.414.237.692 0 .137-.026.262-.071.376a.905.905 0 01-.493.507.946.946 0 01-.385.077.89.89 0 01-.7-.325 1.197 1.197 0 01-.197-.377zm6.313-1.729h-.512v2.84h.512v-2.84zm-3.188 0h.512v.852h.473c.224 0 .405.029.55.083a.942.942 0 01.35.217.75.75 0 01.185.312c.036.118.055.24.055.367 0 .128-.02.25-.061.37a.838.838 0 01-.198.322.951.951 0 01-.37.23 1.65 1.65 0 01-.57.09h-.929v-2.843h.003zm.512 1.327v1.04h.373c.256 0 .437-.044.54-.134.105-.09.156-.217.156-.386a.492.492 0 00-.158-.392c-.107-.09-.286-.134-.532-.134h-.379v.006z" fill="#000"/><path d="M76.057 31.946a1.16 1.16 0 01-.48.354c-.199.08-.412.122-.627.121a1.79 1.79 0 01-.63-.105 1.363 1.363 0 01-.803-.769 1.6 1.6 0 01-.113-.61 1.503 1.503 0 01.415-1.049c.13-.133.285-.235.46-.315.185-.081.385-.121.586-.118.23 0 .444.029.639.086.194.057.359.153.495.287l-.236.399a1.111 1.111 0 00-.396-.23 1.393 1.393 0 00-.43-.067.995.995 0 00-.907.597 1.01 1.01 0 00-.081.414 1.004 1.004 0 00.307.737c.094.09.204.156.33.201.127.044.26.07.402.07.175 0 .33-.035.47-.102.135-.065.256-.155.356-.265l.243.364zm.263-2.43h2.627v.504H77.89v2.334h-.512V30.02h-1.056v-.505h-.003z" fill="#000"/><path fill-rule="evenodd" clip-rule="evenodd" d="M80.016 29.516h-.512v4.101h.512v-1.393c.103.067.227.115.369.146.142.032.291.048.444.048a1.473 1.473 0 001.088-.44c.133-.137.233-.297.305-.485.07-.188.107-.39.107-.603 0-.21-.033-.405-.094-.58a1.35 1.35 0 00-.266-.453 1.153 1.153 0 00-.418-.297 1.349 1.349 0 00-.554-.108c-.2 0-.388.038-.567.115a1.095 1.095 0 00-.414.283v-.334zm.356.526c.146-.077.305-.115.477-.115.148 0 .281.022.401.07a.801.801 0 01.295.204c.081.09.143.192.181.313.043.121.062.252.062.396 0 .153-.026.29-.071.417a.908.908 0 01-.512.539 1.038 1.038 0 01-.418.08 1.59 1.59 0 01-.392-.047 1.284 1.284 0 01-.379-.173V30.32c.09-.108.21-.2.356-.277zm5.883-.527h-.512v2.84h.512v-2.84zm-3.191 0h.512v.852h.473c.223 0 .404.029.55.083a.943.943 0 01.35.217.75.75 0 01.185.312c.035.118.055.24.055.367 0 .128-.02.25-.061.37a.84.84 0 01-.198.322.952.952 0 01-.37.23 1.649 1.649 0 01-.57.09h-.93v-2.843h.004zm.515 1.327v1.04h.373c.255 0 .437-.044.54-.134.104-.09.156-.217.156-.386 0-.172-.055-.303-.158-.392-.107-.09-.286-.134-.532-.134h-.379v.006z" fill="#000"/><path d="M88.71 30.884l1.095 1.47h-.628l-.846-1.148-.858 1.148h-.596l1.088-1.445-1.023-1.394h.628l.78 1.072.794-1.072h.596l-1.03 1.369zm-44.967 4.979h-1.57v2.367h-.513v-2.84h2.595v2.839h-.512v-2.367zm3.417.032h-1.01l-.033.478c-.035.405-.084.73-.152.98-.068.248-.153.44-.25.573a.716.716 0 01-.34.272 1.181 1.181 0 01-.417.07l-.04-.491c.056.003.12-.01.192-.042a.532.532 0 00.21-.207c.068-.109.13-.262.185-.46.055-.2.09-.462.11-.79l.052-.884h2.005v2.839h-.512v-2.338z" fill="#000"/><path fill-rule="evenodd" clip-rule="evenodd" d="M49.05 35.398a1.605 1.605 0 00-.44.188l.136.402c.117-.058.234-.106.35-.147.117-.042.266-.06.444-.06.142 0 .256.022.343.066a.453.453 0 01.198.182.784.784 0 01.09.284c.017.112.023.233.023.363a.878.878 0 00-.35-.143 2.016 2.016 0 00-.369-.038c-.152 0-.295.022-.43.06a.952.952 0 00-.348.173.823.823 0 00-.31.67c0 .277.08.494.243.647.161.153.375.23.641.23.24 0 .43-.042.577-.125.145-.083.262-.179.346-.287v.367h.48v-1.742c0-.37-.081-.657-.247-.858-.162-.2-.45-.303-.858-.303-.175 0-.35.025-.518.07zm.86 2.299c-.117.083-.27.121-.457.121-.169 0-.295-.041-.386-.121a.42.42 0 01-.136-.325c0-.08.016-.147.052-.208a.47.47 0 01.14-.146.612.612 0 01.197-.087.898.898 0 01.227-.028c.252 0 .47.06.648.188v.36c-.085.094-.18.176-.286.246z" fill="#000"/><path d="M51.176 35.391h2.627v.504h-1.056v2.335h-.512v-2.335H51.18v-.504h-.003z" fill="#000"/><path fill-rule="evenodd" clip-rule="evenodd" d="M56.194 38.201c.194-.06.36-.153.502-.28l-.156-.396a1.2 1.2 0 01-.373.21 1.442 1.442 0 01-.511.087c-.282 0-.515-.074-.7-.224-.185-.15-.285-.36-.308-.628h2.216c.023-.099.033-.21.033-.341a1.281 1.281 0 00-.393-.941 1.264 1.264 0 00-.427-.265 1.637 1.637 0 00-1.156.022 1.339 1.339 0 00-.752.785 1.639 1.639 0 00-.1.58c0 .224.038.428.11.61a1.33 1.33 0 00.797.768c.204.073.42.108.638.106.19 0 .385-.032.58-.093zm-1.3-2.188c.16-.143.37-.214.636-.214.253 0 .45.07.596.201.145.134.223.32.236.555h-1.749a.865.865 0 01.282-.542zm2.252-.622h.648l.988 1.369-1.056 1.47h-.629l1.108-1.47-1.059-1.369zm1.762 0h.512v2.839h-.512v-2.84zm2.342 2.839l-1.127-1.47 1.053-1.37h-.636l-.994 1.37 1.07 1.47h.634zm2.339-.029c.194-.06.36-.153.502-.28l-.156-.396c-.094.083-.22.153-.372.21a1.445 1.445 0 01-.512.087c-.282 0-.515-.074-.7-.224-.184-.15-.285-.36-.307-.628h2.215c.023-.099.033-.21.033-.341a1.275 1.275 0 00-.392-.941 1.267 1.267 0 00-.428-.265 1.429 1.429 0 00-.522-.096c-.239 0-.45.041-.634.118a1.327 1.327 0 00-.751.785 1.632 1.632 0 00-.101.58c0 .224.039.428.11.61a1.333 1.333 0 00.797.769 1.947 1.947 0 001.218.013zm-1.3-2.188c.16-.143.37-.214.636-.214.25 0 .45.07.596.201.146.134.224.32.236.555h-1.749a.865.865 0 01.282-.542zm4.08-1.576c-.302 0-.467-.166-.493-.497h-.483c0 .127.023.242.065.35.042.11.104.201.185.278.08.077.184.137.304.185.12.048.26.07.418.07.146 0 .276-.022.392-.07a.931.931 0 00.298-.185.806.806 0 00.191-.277.893.893 0 00.068-.351h-.48c-.022.331-.18.497-.466.497zm-1.384.954v2.839h.512l1.665-2.115v2.115h.512v-2.84h-.512l-1.665 2.116V35.39h-.512z" fill="#000"/></svg>