<svg width="54" height="38" fill="none" xmlns="http://www.w3.org/2000/svg"><path d="M50.498 37.352H3.502A3.509 3.509 0 010 33.84V4.16A3.506 3.506 0 013.502.66h46.986A3.509 3.509 0 0154 4.161v29.678a3.508 3.508 0 01-3.502 3.513z" fill="#505278"/><path d="M50.498.659H27v36.693h23.498A3.5 3.5 0 0054 33.85V4.16a3.506 3.506 0 00-3.502-3.5z" fill="#424566"/><path d="M28.17.659c-.358 10.832-9.28 19.522-20.197 19.522-2.826 0-5.526-.58-7.973-1.645V13.82a15.863 15.863 0 007.973 2.131c8.586 0 15.61-6.803 15.968-15.304h4.23V.66z" fill="#575982"/><path d="M27 .659v6.128A20.372 20.372 0 0028.17.659H27zm27 21.452v4.282c-2.532-.485-5-.696-7.447-.453-4.419.443-8.522 2.51-12.92 6.507a214.33 214.33 0 00-2.11 1.951c-1.054.981-2.108 1.973-3.216 2.943h-6.834c2.53-1.688 4.799-3.807 7.172-6.022.706-.654 1.423-1.34 2.151-1.994 5.105-4.63 9.977-7.045 15.335-7.583 2.648-.264 5.327-.053 7.868.37z" fill="#505278"/><path d="M21.473 37.352h5.526v-4.504c-1.803 1.656-3.586 3.206-5.526 4.504z" fill="#575982"/><path d="M11.306 18.515H6.128a1.436 1.436 0 01-1.435-1.434v-3.439c0-.79.644-1.434 1.435-1.434h5.178c.791 0 1.435.643 1.435 1.434v3.439a1.436 1.436 0 01-1.435 1.434z" fill="#424566"/><path d="M11.306 18.43h-5.19a1.34 1.34 0 01-1.339-1.339v-3.449c0-.738.602-1.34 1.34-1.34h5.189c.738 0 1.34.602 1.34 1.34v3.449c0 .738-.602 1.34-1.34 1.34z" fill="#FEBD55"/><path d="M12.645 15.477v-.21H9.903v-.929l.707-.706h2.035c0-.074-.01-.148-.02-.211h-2.068a.096.096 0 00-.074.031l-.738.739h-.928v-1.878h-.211v1.878h-.918l-.738-.739a.114.114 0 00-.074-.031H4.798a1.3 1.3 0 00-.02.21h2.056l.696.697v.938H4.777v.211H7.53v.939l-.696.696H4.777c0 .074.01.148.021.211h2.078c.032 0 .053-.01.074-.032l.738-.738h.918v1.877h.21v-1.877h.929l.738.738a.096.096 0 00.074.032h2.067c.01-.063.021-.137.021-.21H10.61l-.707-.707v-.929h2.742zm-2.953.865H7.741v-1.951h1.951v1.951z" fill="#B5613C"/><path d="M48.347 18.367a.293.293 0 01-.138-.031.304.304 0 01-.137-.422 5.586 5.586 0 000-5.073.321.321 0 01.137-.422.321.321 0 01.422.137 6.19 6.19 0 010 5.642.333.333 0 01-.284.17zm-1.087-.601c.855-1.519.855-3.27 0-4.788a.311.311 0 00-.432-.116.311.311 0 00-.116.432c.749 1.329.749 2.848 0 4.166a.323.323 0 00.116.432.298.298 0 00.158.043.385.385 0 00.274-.169zm-1.35-.432c.834-1.213.834-2.721 0-3.945a.318.318 0 10-.527.359 2.825 2.825 0 010 3.227.321.321 0 00.084.443.276.276 0 00.18.053c.105.01.2-.043.263-.137zm-1.423-.401c.464-.422.717-.981.717-1.561s-.253-1.14-.718-1.561a.306.306 0 00-.442.021.306.306 0 00.02.443c.328.306.507.696.507 1.097 0 .4-.18.79-.506 1.097a.316.316 0 00-.021.443.339.339 0 00.232.105.335.335 0 00.21-.084z" fill="#CAD4FF"/><path d="M26.567 32.036H5.094a.31.31 0 01-.317-.317.31.31 0 01.317-.316h21.473a.31.31 0 01.317.317.317.317 0 01-.317.316z" fill="#E6EAFF"/><path d="M48.991 32.036H44.92a.31.31 0 01-.317-.317.31.31 0 01.317-.316h4.071a.31.31 0 01.316.317.317.317 0 01-.316.316zm-5.8-.317a.31.31 0 00-.317-.316h-4.071a.31.31 0 00-.317.317.31.31 0 00.317.316h4.07c.18 0 .317-.148.317-.317z" fill="#CAD4FF"/><path d="M5.094 7.852a.31.31 0 01-.317-.316V6.29a.31.31 0 01.317-.316.31.31 0 01.316.316v1.234a.32.32 0 01-.316.327zm2.035-.316V6.29a.31.31 0 00-.316-.316.31.31 0 00-.316.316v1.234c0 .18.137.316.316.316.18.01.316-.137.316-.305zm1.73 0V6.29a.31.31 0 00-.316-.316.31.31 0 00-.317.316v1.234c0 .18.137.316.317.316a.308.308 0 00.316-.305zm1.72 0V6.29a.31.31 0 00-.317-.316.31.31 0 00-.317.316v1.234c0 .18.137.316.317.316a.302.302 0 00.316-.305zm-4.83 19.132h-.053a.963.963 0 01-.96-.96V24.21c0-.527.433-.96.96-.96h.053c.527 0 .96.433.96.96v1.498c0 .527-.422.96-.96.96zm-.053-2.785a.329.329 0 00-.327.327v1.498c0 .18.148.327.327.327h.053c.18 0 .327-.148.327-.327V24.21a.329.329 0 00-.327-.327h-.053zm2.615 2.785H8.26a.963.963 0 01-.96-.96V24.21c0-.527.432-.96.96-.96h.052c.528 0 .96.433.96.96v1.498c0 .527-.422.96-.96.96zm-.052-2.785a.329.329 0 00-.327.327v1.498c0 .18.147.327.327.327h.052c.18 0 .327-.148.327-.327V24.21a.329.329 0 00-.327-.327H8.26zm2.615 2.785h-.053a.963.963 0 01-.96-.96V24.21c0-.527.433-.96.96-.96h.053c.527 0 .96.433.96.96v1.498c0 .527-.433.96-.96.96zm-.053-2.785a.329.329 0 00-.327.327v1.498c0 .18.148.327.327.327h.053c.18 0 .327-.148.327-.327V24.21a.329.329 0 00-.327-.327h-.053zm2.617 2.785h-.053a.963.963 0 01-.96-.96V24.21c0-.527.433-.96.96-.96h.053c.528 0 .96.433.96.96v1.498c0 .527-.432.96-.96.96zm-.053-2.785a.329.329 0 00-.326.327v1.498c0 .18.147.327.327.327h.052c.18 0 .327-.148.327-.327V24.21a.329.329 0 00-.327-.327h-.053zm3.987 2.785h-.053a.963.963 0 01-.96-.96V24.21c0-.527.433-.96.96-.96h.053c.527 0 .96.433.96.96v1.498c0 .527-.433.96-.96.96zm-.053-2.785a.329.329 0 00-.327.327v1.498c0 .18.148.327.327.327h.053c.18 0 .327-.148.327-.327V24.21a.329.329 0 00-.327-.327h-.053zm2.615 2.785h-.052a.963.963 0 01-.96-.96V24.21c0-.527.432-.96.96-.96h.052c.528 0 .96.433.96.96v1.498c0 .527-.432.96-.96.96zm-.052-2.785a.329.329 0 00-.327.327v1.498c0 .18.147.327.327.327h.052c.18 0 .327-.148.327-.327V24.21a.329.329 0 00-.326-.327h-.053zm2.615 2.785h-.053a.963.963 0 01-.96-.96V24.21c0-.527.433-.96.96-.96h.053c.527 0 .96.433.96.96v1.498c0 .527-.433.96-.96.96zm-.053-2.785a.329.329 0 00-.327.327v1.498c0 .18.148.327.327.327h.053c.18 0 .327-.148.327-.327V24.21a.329.329 0 00-.327-.327h-.053zm2.617 2.785h-.052a.963.963 0 01-.96-.96V24.21c0-.527.432-.96.96-.96h.052c.528 0 .96.433.96.96v1.498c0 .527-.432.96-.96.96zm-.052-2.785a.329.329 0 00-.327.327v1.498c0 .18.147.327.327.327h.052c.18 0 .327-.148.327-.327V24.21a.329.329 0 00-.327-.327h-.052z" fill="#E6EAFF"/><path d="M28.995 26.668h-.053a.963.963 0 01-.96-.96V24.21c0-.527.433-.96.96-.96h.053c.527 0 .96.433.96.96v1.498c0 .527-.433.96-.96.96zm-.053-2.785a.329.329 0 00-.327.327v1.498c0 .18.148.327.327.327h.053c.18 0 .327-.148.327-.327V24.21a.329.329 0 00-.327-.327h-.053zm2.615 2.785h-.052a.963.963 0 01-.96-.96V24.21c0-.527.432-.96.96-.96h.052c.528 0 .96.433.96.96v1.498c0 .527-.432.96-.96.96zm-.052-2.785a.329.329 0 00-.327.327v1.498c0 .18.147.327.327.327h.052c.18 0 .327-.148.327-.327V24.21a.329.329 0 00-.327-.327h-.052zm2.615 2.785h-.053a.963.963 0 01-.96-.96V24.21c0-.527.433-.96.96-.96h.053c.527 0 .96.433.96.96v1.498c0 .527-.433.96-.96.96zm-.053-2.785a.329.329 0 00-.327.327v1.498c0 .18.148.327.327.327h.053c.18 0 .327-.148.327-.327V24.21a.329.329 0 00-.327-.327h-.053zm2.617 2.785h-.052a.963.963 0 01-.96-.96V24.21c0-.527.432-.96.96-.96h.052c.528 0 .96.433.96.96v1.498c0 .527-.432.96-.96.96zm-.052-2.785a.329.329 0 00-.327.327v1.498c0 .18.147.327.327.327h.053a.328.328 0 00.326-.327V24.21a.329.329 0 00-.327-.327h-.052zm3.984 2.785h-.053a.963.963 0 01-.96-.96V24.21c0-.527.433-.96.96-.96h.053c.527 0 .96.433.96.96v1.498c0 .527-.433.96-.96.96zm-.053-2.785a.329.329 0 00-.327.327v1.498c0 .18.148.327.327.327h.053c.18 0 .327-.148.327-.327V24.21a.329.329 0 00-.327-.327h-.053zm2.615 2.785h-.052a.963.963 0 01-.96-.96V24.21c0-.527.432-.96.96-.96h.052c.528 0 .96.433.96.96v1.498c0 .527-.432.96-.96.96zm-.052-2.785a.329.329 0 00-.327.327v1.498c0 .18.147.327.327.327h.052c.18 0 .327-.148.327-.327V24.21a.329.329 0 00-.327-.327h-.052zm2.615 2.785h-.053a.963.963 0 01-.96-.96V24.21c0-.527.433-.96.96-.96h.053c.527 0 .96.433.96.96v1.498c0 .527-.433.96-.96.96zm-.053-2.785a.329.329 0 00-.327.327v1.498c0 .18.148.327.327.327h.053c.18 0 .327-.148.327-.327V24.21a.329.329 0 00-.327-.327h-.053zm2.618 2.785h-.053a.963.963 0 01-.96-.96V24.21c0-.527.432-.96.96-.96h.053c.527 0 .96.433.96.96v1.498c0 .527-.433.96-.96.96zm-.053-2.785a.329.329 0 00-.327.327v1.498c0 .18.148.327.327.327h.053a.33.33 0 00.327-.327V24.21a.329.329 0 00-.327-.327h-.053z" fill="#CAD4FF"/></svg>