<svg width="428" height="624" fill="none" xmlns="http://www.w3.org/2000/svg"><path d="M598.774 624v-4.13l119.659-110.647L1072 622.024v-38.388l-.92-.643-339.274-236.649L1072 454.876v-38.388l-.92-.643-339.274-236.649L1072 287.724v-38.387l-.92-.643L717.701 2.204 596.606 114.068 475.54 2.027l-.07.066L473.226 0v4.165L353.567 114.812 0 2.014v38.388l.922.643 339.272 236.649L0 169.162v38.388l.922.643 339.272 236.649L0 336.31v38.388l.922.643L354.3 621.831l121.094-111.864L596.47 622.011l.079-.073 2.228 2.059-.003.003zM475.397 504.095L353.922 616.31 4.316 372.453v-30.236l361.738 115.405L4.316 205.302v-30.233l361.738 115.405L4.314 38.154V7.918L354.65 119.687l.926-.856L475.537 7.905l121.066 112.038 1.467-1.355L718.078 7.728l349.602 243.857v30.236L705.946 166.417l361.734 252.319v30.236L705.946 333.568l361.734 252.316v30.236L717.346 504.352l-120.81 111.711-.006-.006-.073.07-121.06-112.032z" fill="#FF6001"/></svg>