<svg width="439" height="624" viewBox="0 0 439 624" fill="none" xmlns="http://www.w3.org/2000/svg">
<path d="M-159.774 624V619.87L-279.433 509.222L-633 622.024V583.636L-632.078 582.993L-292.806 346.344L-633 454.876V416.488L-632.078 415.845L-292.806 179.196L-633 287.724V249.337L-632.078 248.694L-278.701 2.20428L-157.606 114.068L-36.5399 2.02692L-36.4702 2.09343L-34.2264 0V4.16469L85.4326 114.812L439 2.01425V40.4022L438.078 41.0451L98.8062 277.694L439 169.162V207.55L438.078 208.193L98.8062 444.842L439 336.31V374.698L438.078 375.341L84.7005 621.831L-36.3941 509.967L-157.47 622.011L-157.549 621.938L-159.777 623.997L-159.774 624ZM-36.3972 504.095L85.0777 616.31L434.684 372.453V342.217L72.9464 457.621L434.684 205.302V175.069L72.9464 290.473L434.687 38.1536V7.91766L84.3488 119.686L83.4233 118.831L-36.5367 7.90499L-157.603 119.943L-159.07 118.587L-279.078 7.72763L-628.684 251.585V281.821L-266.946 166.416L-628.684 418.736V448.972L-266.946 333.568L-628.684 585.884V616.12L-278.346 504.352L-157.536 616.063L-157.53 616.057L-157.457 616.127L-36.3972 504.095Z" fill="#FF6001"/>
</svg>
